Run_30001
nRows=4
nColumns=161

# SIMM Motion File Header:
name Run_30001
datacolumns 161
datarows 4
otherdata 1
range 0.00833300 0.03333300
endheader
time	pelvis_tilt	pelvis_list	pelvis_rotation	pelvis_tx	pelvis_ty	pelvis_tz	hip_flexion_r	hip_adduction_r	hip_rotation_r	knee_angle_r	ankle_angle_r	hip_flexion_l	hip_adduction_l	hip_rotation_l	knee_angle_l	ankle_angle_l	lumbar_extension	lumbar_bending	lumbar_rotation	arm_flex_r	arm_add_r	arm_rot_r	elbow_flex_r	pro_sup_r	arm_flex_l	arm_add_l	arm_rot_l	elbow_flex_l	pro_sup_l	subtalar_angle_r	mtp_angle_r	subtalar_angle_l	mtp_angle_l	wrist_flex_r	wrist_dev_r	wrist_flex_l	wrist_dev_l	LASI_tx	LASI_ty	LASI_tz	RASI_tx	RASI_ty	RASI_tz	LPSI_tx	LPSI_ty	LPSI_tz	RPSI_tx	RPSI_ty	RPSI_tz	RTH1_tx	RTH1_ty	RTH1_tz	RTH3_tx	RTH3_ty	RTH3_tz	LTH1_tx	LTH1_ty	LTH1_tz	LTH2_tx	LTH2_ty	LTH2_tz	LTH3_tx	LTH3_ty	LTH3_tz	RTB1_tx	RTB1_ty	RTB1_tz	RTB2_tx	RTB2_ty	RTB2_tz	RTB3_tx	RTB3_ty	RTB3_tz	LTB1_tx	LTB1_ty	LTB1_tz	LTB2_tx	LTB2_ty	LTB2_tz	LTB3_tx	LTB3_ty	LTB3_tz	RCAL_tx	RCAL_ty	RCAL_tz	RTOE_tx	RTOE_ty	RTOE_tz	RMT5_tx	RMT5_ty	RMT5_tz	LCAL_tx	LCAL_ty	LCAL_tz	LTOE_tx	LTOE_ty	LTOE_tz	LMT5_tx	LMT5_ty	LMT5_tz	LACR_tx	LACR_ty	LACR_tz	RACR_tx	RACR_ty	RACR_tz	CLAV_tx	CLAV_ty	CLAV_tz	C7_tx	C7_ty	C7_tz	RUA1_tx	RUA1_ty	RUA1_tz	RUA2_tx	RUA2_ty	RUA2_tz	RUA3_tx	RUA3_ty	RUA3_tz	RLEL_tx	RLEL_ty	RLEL_tz	RMEL_tx	RMEL_ty	RMEL_tz	LUA1_tx	LUA1_ty	LUA1_tz	LUA2_tx	LUA2_ty	LUA2_tz	LUA3_tx	LUA3_ty	LUA3_tz	LLEL_tx	LLEL_ty	LLEL_tz	LMEL_tx	LMEL_ty	LMEL_tz	RFAsuperior_tx	RFAsuperior_ty	RFAsuperior_tz	RFAradius_tx	RFAradius_ty	RFAradius_tz	RFAulna_tx	RFAulna_ty	RFAulna_tz	LFAsuperior_tx	LFAsuperior_ty	LFAsuperior_tz	LFAradius_tx	LFAradius_ty	LFAradius_tz	LFAulna_tx	LFAulna_ty	LFAulna_tz
      0.00833300	     -6.88729413	      4.43402378	      2.14126655	      0.91999655	      1.02164791	     -0.30373695	    -18.25946491	     -0.08986771	      1.95805720	     -7.29853236	    -23.96355926	     32.94058592	     10.08423289	      9.23862579	    -28.87333743	      5.46939558	     -3.51289632	     -4.02764881	     10.41259773	    -21.68040495	    -24.70776454	      4.03161106	    112.19017182	    100.68326122	    -48.51836226	    -25.13607225	     -0.38117062	    106.56313447	    114.27268288	      0.00000000	      0.00000000	      0.00000000	      0.00000000	      0.00000000	      0.00000000	      0.00000000	      0.00000000	      0.92532783	      1.06202926	     -0.41838520	      0.93596466	      1.03382096	     -0.18968066	      0.77141333	      1.09774433	     -0.34066530	      0.77624575	      1.09378818	     -0.24482088	      0.82190914	      0.88426001	     -0.12659908	      0.70421017	      0.65509767	     -0.18078744	      0.92096075	      0.88673005	     -0.47449971	      1.01368288	      0.80704541	     -0.45100013	      0.99317016	      0.67606352	     -0.42531349	      0.63256384	      0.42694727	     -0.25043130	      0.56717976	      0.39624665	     -0.18824903	      0.55677319	      0.32589074	     -0.25272780	      1.07712149	      0.46542018	     -0.35285403	      1.03145478	      0.39387401	     -0.42737203	      1.05068967	      0.29759923	     -0.35527147	      0.39177199	      0.26200709	     -0.25742454	      0.50830143	      0.09277245	     -0.30787785	      0.48040857	      0.08426018	     -0.21612272	      0.94125383	      0.15371996	     -0.35968021	      1.14678747	      0.16056306	     -0.32618189	      1.13945761	      0.13668176	     -0.41467764	      0.86548314	      1.52546839	     -0.47227798	      0.94778589	      1.51024432	     -0.09878932	      0.96658710	      1.50239842	     -0.27922229	      0.84122277	      1.56147537	     -0.28631916	      0.91132791	      1.37709542	     -0.03708456	      0.83686156	      1.37427142	     -0.02878083	      0.88359236	      1.30357215	      0.00328205	      0.85819825	      1.23478703	      0.02346047	      0.80553537	      1.21566252	     -0.03915841	      0.76145836	      1.44787229	     -0.52661933	      0.68744081	      1.43568698	     -0.50349378	      0.71664778	      1.37451532	     -0.54971426	      0.63848299	      1.33278580	     -0.56612914	      0.61422241	      1.33751054	     -0.48354296	      0.95832275	      1.21172202	     -0.04952744	      1.02006071	      1.19913469	     -0.15417691	      1.02829144	      1.13728614	     -0.12067467	      0.72193793	      1.23381394	     -0.55435239	      0.81030008	      1.17968467	     -0.47754314	      0.78255744	      1.13853376	     -0.52474582
      0.01666700	     -7.22952119	      3.61824771	      2.28394170	      0.92130865	      1.02356040	     -0.30343602	    -18.48838978	      0.68955828	      1.98960489	     -8.04662136	    -25.95587487	     31.88907514	      9.32470452	     11.19963862	    -23.06960329	      5.10540859	     -2.85155677	     -3.21851728	     10.69908635	    -22.31700957	    -24.84026788	      3.80764029	    113.09050591	    101.63377971	    -49.18954198	    -25.02267833	     -0.72838586	    106.97368427	    114.57221411	      0.00000000	      0.00000000	      0.00000000	      0.00000000	      0.00000000	      0.00000000	      0.00000000	      0.00000000	      0.92668583	      1.06375992	     -0.41861847	      0.93749919	      1.03668686	     -0.18982779	      0.77287727	      1.10082912	     -0.34046498	      0.77830354	      1.09756974	     -0.24452588	      0.82144338	      0.88884328	     -0.12557430	      0.70196857	      0.66054855	     -0.17960340	      0.91936308	      0.88697333	     -0.47267529	      1.01033916	      0.80499815	     -0.44970780	      0.98887305	      0.67431720	     -0.42493114	      0.62633028	      0.43296839	     -0.24910668	      0.56126443	      0.40361086	     -0.18613129	      0.54782937	      0.33325348	     -0.24963807	      1.07916855	      0.46577271	     -0.35025868	      1.04129310	      0.39093970	     -0.42534557	      1.06573046	      0.29679961	     -0.35195268	      0.38398712	      0.27583835	     -0.25301836	      0.49045800	      0.10080966	     -0.30583999	      0.46104814	      0.09197688	     -0.21468446	      0.96792054	      0.14510511	     -0.35692012	      1.17118116	      0.16824633	     -0.32055770	      1.16750754	      0.14228181	     -0.40809017	      0.86412231	      1.52814933	     -0.47163031	      0.94850637	      1.51329844	     -0.09971387	      0.96659581	      1.50494856	     -0.27964603	      0.84088550	      1.56330999	     -0.28608241	      0.91234677	      1.38120530	     -0.03705542	      0.83770591	      1.37801197	     -0.02945112	      0.88480048	      1.30825151	      0.00430290	      0.85955551	      1.23857563	      0.02398646	      0.80669088	      1.21973412	     -0.03864881	      0.75966055	      1.45169575	     -0.52613516	      0.68597360	      1.43961822	     -0.50181229	      0.71438820	      1.37840283	     -0.54872661	      0.63586854	      1.33692000	     -0.56434409	      0.61249980	      1.34160026	     -0.48138730	      0.95901640	      1.21646259	     -0.05031167	      1.01979514	      1.20492798	     -0.15572935	      1.02891618	      1.14352914	     -0.12131986	      0.71971137	      1.23833322	     -0.55348956	      0.80860100	      1.18412950	     -0.47749752	      0.78083898	      1.14293594	     -0.52464456
      0.02500000	     -7.47351221	      2.68594420	      2.31152839	      0.92259305	      1.02489578	     -0.30301992	    -18.57246503	      1.57622755	      2.10339423	     -9.32627849	    -27.46208974	     30.85846745	      8.29384131	     13.02035236	    -17.68389659	      4.51836301	     -2.30268389	     -2.27120709	     11.01890524	    -22.94480491	    -25.00373838	      3.63765926	    113.91427511	    102.17047731	    -49.82933970	    -24.85807842	     -1.08178662	    107.40010580	    114.97520667	      0.00000000	      0.00000000	      0.00000000	      0.00000000	      0.00000000	      0.00000000	      0.00000000	      0.00000000	      0.92792223	      1.06484341	     -0.41870909	      0.93880224	      1.03918639	     -0.18991825	      0.77419820	      1.10328587	     -0.34047769	      0.78008928	      1.10086826	     -0.24447128	      0.82104876	      0.89324188	     -0.12471272	      0.70093927	      0.66467041	     -0.17857697	      0.91791066	      0.88675867	     -0.47138005	      1.00769358	      0.80270460	     -0.44885387	      0.98482600	      0.67233343	     -0.42458102	      0.62088843	      0.43790115	     -0.24790227	      0.55609332	      0.41008947	     -0.18414581	      0.53920038	      0.34037850	     -0.24724505	      1.08097045	      0.46587352	     -0.34788288	      1.04971111	      0.38833688	     -0.42337095	      1.07947328	      0.29633479	     -0.34903606	      0.37573106	      0.28959493	     -0.24886328	      0.47259192	      0.10933722	     -0.30366327	      0.44197832	      0.10054921	     -0.21306737	      0.99274189	      0.13773070	     -0.35439443	      1.19321243	      0.17617082	     -0.31509962	      1.19322585	      0.14805476	     -0.40172208	      0.86301217	      1.53032912	     -0.47121246	      0.94903815	      1.51572928	     -0.10050392	      0.96667854	      1.50703280	     -0.28008297	      0.84062614	      1.56477181	     -0.28591116	      0.91304689	      1.38464326	     -0.03701475	      0.83829308	      1.38103165	     -0.03016483	      0.88559658	      1.31221037	      0.00526509	      0.86054624	      1.24170748	      0.02440308	      0.80749370	      1.22315265	     -0.03825682	      0.75807449	      1.45484201	     -0.52575007	      0.68467874	      1.44280769	     -0.50028238	      0.71237917	      1.38159931	     -0.54786723	      0.63355306	      1.34032340	     -0.56271864	      0.61101158	      1.34492719	     -0.47946613	      0.95942222	      1.22029308	     -0.05099488	      1.01937652	      1.20968174	     -0.15706539	      1.02908946	      1.14844919	     -0.12221372	      0.71779728	      1.24215272	     -0.55276591	      0.80716762	      1.18784938	     -0.47748121	      0.77947793	      1.14665302	     -0.52467335
      0.03333300	     -7.62084402	      1.72989623	      2.22527710	      0.92364916	      1.02553573	     -0.30261828	    -18.34518514	      2.47296898	      2.26887532	    -11.51254554	    -28.10273654	     29.99159968	      7.15278385	     14.47777008	    -13.18064809	      4.07556713	     -1.90173295	     -1.26737684	     11.32894373	    -23.49935518	    -25.17341932	      3.58122881	    114.51094265	    102.10240879	    -50.33920407	    -24.61133598	     -1.41433301	    107.75570043	    115.49189651	      0.00000000	      0.00000000	      0.00000000	      0.00000000	      0.00000000	      0.00000000	      0.00000000	      0.00000000	      0.92895682	      1.06494695	     -0.41857956	      0.93974243	      1.04111561	     -0.18990670	      0.77526158	      1.10469340	     -0.34081431	      0.78136497	      1.10333519	     -0.24474438	      0.82082655	      0.89708129	     -0.12424257	      0.70188896	      0.66659945	     -0.17773605	      0.91672713	      0.88561784	     -0.47088138	      1.00604516	      0.79990617	     -0.44868048	      0.98116523	      0.66993539	     -0.42428076	      0.61674730	      0.44112105	     -0.24676319	      0.55199034	      0.41530468	     -0.18231562	      0.53115905	      0.34709374	     -0.24564192	      1.08235346	      0.46563388	     -0.34582156	      1.05591117	      0.38627643	     -0.42147512	      1.09102658	      0.29638178	     -0.34666196	      0.36681646	      0.30328349	     -0.24509484	      0.45490289	      0.11873693	     -0.30129189	      0.42355360	      0.11047348	     -0.21116001	      1.01430226	      0.13227510	     -0.35219326	      1.21133187	      0.18416521	     -0.30993311	      1.21496792	      0.15400149	     -0.39576232	      0.86231825	      1.53169688	     -0.47115979	      0.94928264	      1.51716096	     -0.10108750	      0.96687123	      1.50837225	     -0.28054858	      0.84050533	      1.56563787	     -0.28588845	      0.91325778	      1.38694269	     -0.03698265	      0.83845586	      1.38289228	     -0.03092850	      0.88574720	      1.31494824	      0.00607886	      0.86093349	      1.24377314	      0.02462609	      0.80771184	      1.22550815	     -0.03806882	      0.75685080	      1.45687396	     -0.52551017	      0.68368985	      1.44479635	     -0.49899988	      0.71078478	      1.38368186	     -0.54721615	      0.63174995	      1.34253813	     -0.56135648	      0.60993907	      1.34701904	     -0.47790722	      0.95936611	      1.22262770	     -0.05152310	      1.01870723	      1.21269711	     -0.15806200	      1.02855094	      1.15122396	     -0.12349911	      0.71640406	      1.24481282	     -0.55226092	      0.80619958	      1.19038806	     -0.47752293	      0.77869575	      1.14923358	     -0.52488518
